<svg xmlns="http://www.w3.org/2000/svg" xmlns:xlink="http://www.w3.org/1999/xlink" version="1.1" x="0px" y="0px" viewBox="0 0 50 62.5" style="enable-background:new 0 0 50 50;" xml:space="preserve"><g><path d="M45.4,38.2c0.2-0.2,0.2-0.6,0-0.8l-5.6-5.6c-0.2-0.2-0.6-0.2-0.8,0L38.9,32c-0.2,0.2-0.2,0.6,0,0.8l5.6,5.6   c0.2,0.2,0.6,0.2,0.8,0L45.4,38.2z"/><path d="M46.1,36.8c0.2,0.2,0.6,0.2,0.8,0l0.1-0.1c0.2-0.2,0.2-0.6,0-0.8l-5.6-5.6c-0.2-0.2-0.6-0.2-0.8,0l-0.1,0.1   c-0.2,0.2-0.2,0.6,0,0.8L46.1,36.8z"/><path d="M38.3,33.4c-0.2-0.2-0.6-0.2-0.8,0l-0.1,0.1c-0.2,0.2-0.2,0.6,0,0.8l5.6,5.6c0.2,0.2,0.6,0.2,0.8,0l0.1-0.1   c0.2-0.2,0.2-0.6,0-0.8L38.3,33.4z"/><path d="M48.8,38.3c-0.3-0.3-0.8-0.3-1.1,0l-2.3,2.3c-0.3,0.3-0.3,0.8,0,1.1c0.3,0.3,0.8,0.3,1.1,0l2.3-2.3   C49.1,39.1,49.1,38.6,48.8,38.3z"/><path d="M38.9,27.8l0.2-0.2c0.3-0.3,0.3-0.8,0-1.1l-0.2-0.2c-0.3-0.3-0.8-0.3-1.1,0l-0.2,0.2l-2.7-2.7l-2.3,5.7l1,1l-0.2,0.2   c-0.3,0.3-0.3,0.8,0,1.1l0.2,0.2c0.3,0.3,0.8,0.3,1.1,0l0.2-0.2l1,1l4-4L38.9,27.8z"/><polygon points="1.6,37.6 2.2,38.2 1,39.4 3.6,42 4.8,40.8 5.3,41.4 9.1,37.6 5.3,33.9  "/><rect x="8.1" y="31.4" transform="matrix(0.7071 -0.7071 0.7071 0.7071 -21.4993 16.2579)" width="1.6" height="5.3"/><rect x="10.3" y="29.2" transform="matrix(0.7071 -0.7071 0.7071 0.7071 -19.2549 17.1872)" width="1.6" height="5.3"/><rect x="12.5" y="26.2" transform="matrix(0.7071 -0.7071 0.7071 0.7071 -17.0108 18.1169)" width="1.6" height="6.8"/><polygon points="27.9,18.9 26,20.8 31.9,27.1 33.2,23.9  "/><polygon points="23.9,15.2 16.3,8.1 15.1,9.2 22.3,16.8  "/><path d="M34.6,10.3C35,9.8,35,9,34.6,8.6l-0.2-0.2c-0.5-0.5-1.3-0.5-1.7,0L14.1,27l1.9,1.9L34.6,10.3z"/></g><text x="0" y="65" fill="#000000" font-size="5px" font-weight="bold" font-family="'Helvetica Neue', Helvetica, Arial-Unicode, Arial, Sans-serif">Created by Vectors Market</text><text x="0" y="70" fill="#000000" font-size="5px" font-weight="bold" font-family="'Helvetica Neue', Helvetica, Arial-Unicode, Arial, Sans-serif">from the Noun Project</text></svg>